<svg id="visual" viewBox="0 0 900 600" width="900" height="600" xmlns="http://www.w3.org/2000/svg" xmlns:xlink="http://www.w3.org/1999/xlink" version="1.1"><path d="M0 61L450 25L900 31L900 0L450 0L0 0Z" fill="#d8d6d5"></path><path d="M0 79L450 43L900 43L900 29L450 23L0 59Z" fill="#cecccb"></path><path d="M0 121L450 79L900 73L900 41L450 41L0 77Z" fill="#c4c2c1"></path><path d="M0 157L450 109L900 97L900 71L450 77L0 119Z" fill="#bab8b8"></path><path d="M0 169L450 139L900 103L900 95L450 107L0 155Z" fill="#b0aeae"></path><path d="M0 205L450 199L900 133L900 101L450 137L0 167Z" fill="#a6a5a5"></path><path d="M0 247L450 241L900 187L900 131L450 197L0 203Z" fill="#9c9b9b"></path><path d="M0 301L450 331L900 313L900 185L450 239L0 245Z" fill="#939292"></path><path d="M0 529L450 511L900 493L900 311L450 329L0 299Z" fill="#898989"></path><path d="M0 547L450 559L900 553L900 491L450 509L0 527Z" fill="#808080"></path><path d="M0 553L450 577L900 559L900 551L450 557L0 545Z" fill="#777777"></path><path d="M0 601L450 601L900 601L900 557L450 575L0 551Z" fill="#6e6e6e"></path></svg>