<svg id="visual" viewBox="0 0 900 600" width="900" height="600" xmlns="http://www.w3.org/2000/svg" xmlns:xlink="http://www.w3.org/1999/xlink" version="1.1"><path d="M0 157L18.8 152C37.7 147 75.3 137 112.8 135C150.3 133 187.7 139 225.2 146C262.7 153 300.3 161 337.8 162C375.3 163 412.7 157 450.2 151C487.7 145 525.3 139 562.8 138C600.3 137 637.7 141 675.2 146C712.7 151 750.3 157 787.8 161C825.3 165 862.7 167 881.3 168L900 169L900 0L881.3 0C862.7 0 825.3 0 787.8 0C750.3 0 712.7 0 675.2 0C637.7 0 600.3 0 562.8 0C525.3 0 487.7 0 450.2 0C412.7 0 375.3 0 337.8 0C300.3 0 262.7 0 225.2 0C187.7 0 150.3 0 112.8 0C75.3 0 37.7 0 18.8 0L0 0Z" fill="#eeecea"></path><path d="M0 211L18.8 215C37.7 219 75.3 227 112.8 226C150.3 225 187.7 215 225.2 213C262.7 211 300.3 217 337.8 221C375.3 225 412.7 227 450.2 230C487.7 233 525.3 237 562.8 238C600.3 239 637.7 237 675.2 239C712.7 241 750.3 247 787.8 254C825.3 261 862.7 269 881.3 273L900 277L900 167L881.3 166C862.7 165 825.3 163 787.8 159C750.3 155 712.7 149 675.2 144C637.7 139 600.3 135 562.8 136C525.3 137 487.7 143 450.2 149C412.7 155 375.3 161 337.8 160C300.3 159 262.7 151 225.2 144C187.7 137 150.3 131 112.8 133C75.3 135 37.7 145 18.8 150L0 155Z" fill="#e4e2e1"></path><path d="M0 271L18.8 275C37.7 279 75.3 287 112.8 281C150.3 275 187.7 255 225.2 249C262.7 243 300.3 251 337.8 258C375.3 265 412.7 271 450.2 275C487.7 279 525.3 281 562.8 285C600.3 289 637.7 295 675.2 299C712.7 303 750.3 305 787.8 307C825.3 309 862.7 311 881.3 312L900 313L900 275L881.3 271C862.7 267 825.3 259 787.8 252C750.3 245 712.7 239 675.2 237C637.7 235 600.3 237 562.8 236C525.3 235 487.7 231 450.2 228C412.7 225 375.3 223 337.8 219C300.3 215 262.7 209 225.2 211C187.7 213 150.3 223 112.8 224C75.3 225 37.7 217 18.8 213L0 209Z" fill="#dad8d8"></path><path d="M0 421L18.8 420C37.7 419 75.3 417 112.8 422C150.3 427 187.7 439 225.2 432C262.7 425 300.3 399 337.8 386C375.3 373 412.7 373 450.2 377C487.7 381 525.3 389 562.8 394C600.3 399 637.7 401 675.2 406C712.7 411 750.3 419 787.8 416C825.3 413 862.7 399 881.3 392L900 385L900 311L881.3 310C862.7 309 825.3 307 787.8 305C750.3 303 712.7 301 675.2 297C637.7 293 600.3 287 562.8 283C525.3 279 487.7 277 450.2 273C412.7 269 375.3 263 337.8 256C300.3 249 262.7 241 225.2 247C187.7 253 150.3 273 112.8 279C75.3 285 37.7 277 18.8 273L0 269Z" fill="#d0cfcf"></path><path d="M0 451L18.8 450C37.7 449 75.3 447 112.8 453C150.3 459 187.7 473 225.2 466C262.7 459 300.3 431 337.8 420C375.3 409 412.7 415 450.2 421C487.7 427 525.3 433 562.8 439C600.3 445 637.7 451 675.2 458C712.7 465 750.3 473 787.8 468C825.3 463 862.7 445 881.3 436L900 427L900 383L881.3 390C862.7 397 825.3 411 787.8 414C750.3 417 712.7 409 675.2 404C637.7 399 600.3 397 562.8 392C525.3 387 487.7 379 450.2 375C412.7 371 375.3 371 337.8 384C300.3 397 262.7 423 225.2 430C187.7 437 150.3 425 112.8 420C75.3 415 37.7 417 18.8 418L0 419Z" fill="#c6c5c5"></path><path d="M0 493L18.8 494C37.7 495 75.3 497 112.8 500C150.3 503 187.7 507 225.2 500C262.7 493 300.3 475 337.8 468C375.3 461 412.7 465 450.2 469C487.7 473 525.3 477 562.8 480C600.3 483 637.7 485 675.2 494C712.7 503 750.3 519 787.8 518C825.3 517 862.7 499 881.3 490L900 481L900 425L881.3 434C862.7 443 825.3 461 787.8 466C750.3 471 712.7 463 675.2 456C637.7 449 600.3 443 562.8 437C525.3 431 487.7 425 450.2 419C412.7 413 375.3 407 337.8 418C300.3 429 262.7 457 225.2 464C187.7 471 150.3 457 112.8 451C75.3 445 37.7 447 18.8 448L0 449Z" fill="#bdbcbc"></path><path d="M0 535L18.8 537C37.7 539 75.3 543 112.8 548C150.3 553 187.7 559 225.2 559C262.7 559 300.3 553 337.8 549C375.3 545 412.7 543 450.2 543C487.7 543 525.3 545 562.8 547C600.3 549 637.7 551 675.2 555C712.7 559 750.3 565 787.8 566C825.3 567 862.7 563 881.3 561L900 559L900 479L881.3 488C862.7 497 825.3 515 787.8 516C750.3 517 712.7 501 675.2 492C637.7 483 600.3 481 562.8 478C525.3 475 487.7 471 450.2 467C412.7 463 375.3 459 337.8 466C300.3 473 262.7 491 225.2 498C187.7 505 150.3 501 112.8 498C75.3 495 37.7 493 18.8 492L0 491Z" fill="#b3b3b3"></path><path d="M0 601L18.8 601C37.7 601 75.3 601 112.8 601C150.3 601 187.7 601 225.2 601C262.7 601 300.3 601 337.8 601C375.3 601 412.7 601 450.2 601C487.7 601 525.3 601 562.8 601C600.3 601 637.7 601 675.2 601C712.7 601 750.3 601 787.8 601C825.3 601 862.7 601 881.3 601L900 601L900 557L881.3 559C862.7 561 825.3 565 787.8 564C750.3 563 712.7 557 675.2 553C637.7 549 600.3 547 562.8 545C525.3 543 487.7 541 450.2 541C412.7 541 375.3 543 337.8 547C300.3 551 262.7 557 225.2 557C187.7 557 150.3 551 112.8 546C75.3 541 37.7 537 18.8 535L0 533Z" fill="#aaaaaa"></path></svg>