<svg id="visual" viewBox="0 0 900 600" width="900" height="600" xmlns="http://www.w3.org/2000/svg" xmlns:xlink="http://www.w3.org/1999/xlink" version="1.1"><rect x="0" y="0" width="900" height="600" fill="#eeecea"></rect><path d="M0 182L90 146L180 131L270 185L360 176L450 188L540 142L630 133L720 154L810 164L900 179L900 601L810 601L720 601L630 601L540 601L450 601L360 601L270 601L180 601L90 601L0 601Z" fill="#6e6e6e"></path><path d="M0 176L90 161L180 178L270 203L360 191L450 145L540 192L630 173L720 146L810 203L900 215L900 601L810 601L720 601L630 601L540 601L450 601L360 601L270 601L180 601L90 601L0 601Z" fill="#797979"></path><path d="M0 242L90 188L180 192L270 259L360 222L450 198L540 187L630 225L720 259L810 235L900 212L900 601L810 601L720 601L630 601L540 601L450 601L360 601L270 601L180 601L90 601L0 601Z" fill="#848484"></path><path d="M0 279L90 277L180 268L270 290L360 282L450 276L540 291L630 281L720 291L810 234L900 254L900 601L810 601L720 601L630 601L540 601L450 601L360 601L270 601L180 601L90 601L0 601Z" fill="#8f8f8f"></path><path d="M0 295L90 328L180 312L270 307L360 279L450 319L540 284L630 304L720 312L810 319L900 326L900 601L810 601L720 601L630 601L540 601L450 601L360 601L270 601L180 601L90 601L0 601Z" fill="#9b9b9b"></path><path d="M0 342L90 320L180 310L270 355L360 303L450 360L540 337L630 348L720 320L810 358L900 309L900 601L810 601L720 601L630 601L540 601L450 601L360 601L270 601L180 601L90 601L0 601Z" fill="#a6a6a6"></path><path d="M0 346L90 387L180 387L270 386L360 387L450 358L540 343L630 353L720 352L810 390L900 367L900 601L810 601L720 601L630 601L540 601L450 601L360 601L270 601L180 601L90 601L0 601Z" fill="#b2b2b2"></path><path d="M0 426L90 380L180 393L270 399L360 385L450 413L540 409L630 400L720 415L810 403L900 398L900 601L810 601L720 601L630 601L540 601L450 601L360 601L270 601L180 601L90 601L0 601Z" fill="#bebebe"></path><path d="M0 441L90 435L180 426L270 446L360 439L450 454L540 435L630 450L720 464L810 421L900 439L900 601L810 601L720 601L630 601L540 601L450 601L360 601L270 601L180 601L90 601L0 601Z" fill="#cacaca"></path><path d="M0 482L90 479L180 483L270 485L360 480L450 465L540 482L630 473L720 471L810 485L900 480L900 601L810 601L720 601L630 601L540 601L450 601L360 601L270 601L180 601L90 601L0 601Z" fill="#d6d6d6"></path><path d="M0 521L90 525L180 523L270 527L360 507L450 526L540 530L630 502L720 510L810 506L900 528L900 601L810 601L720 601L630 601L540 601L450 601L360 601L270 601L180 601L90 601L0 601Z" fill="#e2e2e2"></path><path d="M0 545L90 563L180 560L270 545L360 546L450 556L540 564L630 542L720 539L810 548L900 547L900 601L810 601L720 601L630 601L540 601L450 601L360 601L270 601L180 601L90 601L0 601Z" fill="#eeeeee"></path></svg>