<svg id="visual" viewBox="0 0 900 600" width="900" height="600" xmlns="http://www.w3.org/2000/svg" xmlns:xlink="http://www.w3.org/1999/xlink" version="1.1"><path d="M0 19L18.8 22C37.7 25 75.3 31 112.8 34C150.3 37 187.7 37 225.2 36C262.7 35 300.3 33 337.8 32C375.3 31 412.7 31 450.2 29C487.7 27 525.3 23 562.8 22C600.3 21 637.7 23 675.2 25C712.7 27 750.3 29 787.8 30C825.3 31 862.7 31 881.3 31L900 31L900 0L881.3 0C862.7 0 825.3 0 787.8 0C750.3 0 712.7 0 675.2 0C637.7 0 600.3 0 562.8 0C525.3 0 487.7 0 450.2 0C412.7 0 375.3 0 337.8 0C300.3 0 262.7 0 225.2 0C187.7 0 150.3 0 112.8 0C75.3 0 37.7 0 18.8 0L0 0Z" fill="#eeecea"></path><path d="M0 49L18.8 51C37.7 53 75.3 57 112.8 57C150.3 57 187.7 53 225.2 53C262.7 53 300.3 57 337.8 56C375.3 55 412.7 49 450.2 47C487.7 45 525.3 47 562.8 48C600.3 49 637.7 49 675.2 50C712.7 51 750.3 53 787.8 54C825.3 55 862.7 55 881.3 55L900 55L900 29L881.3 29C862.7 29 825.3 29 787.8 28C750.3 27 712.7 25 675.2 23C637.7 21 600.3 19 562.8 20C525.3 21 487.7 25 450.2 27C412.7 29 375.3 29 337.8 30C300.3 31 262.7 33 225.2 34C187.7 35 150.3 35 112.8 32C75.3 29 37.7 23 18.8 20L0 17Z" fill="#e2e0de"></path><path d="M0 85L18.8 87C37.7 89 75.3 93 112.8 91C150.3 89 187.7 81 225.2 82C262.7 83 300.3 93 337.8 97C375.3 101 412.7 99 450.2 95C487.7 91 525.3 85 562.8 85C600.3 85 637.7 91 675.2 93C712.7 95 750.3 93 787.8 94C825.3 95 862.7 99 881.3 101L900 103L900 53L881.3 53C862.7 53 825.3 53 787.8 52C750.3 51 712.7 49 675.2 48C637.7 47 600.3 47 562.8 46C525.3 45 487.7 43 450.2 45C412.7 47 375.3 53 337.8 54C300.3 55 262.7 51 225.2 51C187.7 51 150.3 55 112.8 55C75.3 55 37.7 51 18.8 49L0 47Z" fill="#d6d4d2"></path><path d="M0 115L18.8 115C37.7 115 75.3 115 112.8 115C150.3 115 187.7 115 225.2 118C262.7 121 300.3 127 337.8 130C375.3 133 412.7 133 450.2 131C487.7 129 525.3 125 562.8 125C600.3 125 637.7 129 675.2 131C712.7 133 750.3 133 787.8 131C825.3 129 862.7 125 881.3 123L900 121L900 101L881.3 99C862.7 97 825.3 93 787.8 92C750.3 91 712.7 93 675.2 91C637.7 89 600.3 83 562.8 83C525.3 83 487.7 89 450.2 93C412.7 97 375.3 99 337.8 95C300.3 91 262.7 81 225.2 80C187.7 79 150.3 87 112.8 89C75.3 91 37.7 87 18.8 85L0 83Z" fill="#cac8c7"></path><path d="M0 151L18.8 150C37.7 149 75.3 147 112.8 150C150.3 153 187.7 161 225.2 168C262.7 175 300.3 181 337.8 182C375.3 183 412.7 179 450.2 177C487.7 175 525.3 175 562.8 177C600.3 179 637.7 183 675.2 186C712.7 189 750.3 191 787.8 189C825.3 187 862.7 181 881.3 178L900 175L900 119L881.3 121C862.7 123 825.3 127 787.8 129C750.3 131 712.7 131 675.2 129C637.7 127 600.3 123 562.8 123C525.3 123 487.7 127 450.2 129C412.7 131 375.3 131 337.8 128C300.3 125 262.7 119 225.2 116C187.7 113 150.3 113 112.8 113C75.3 113 37.7 113 18.8 113L0 113Z" fill="#bebcbb"></path><path d="M0 169L18.8 168C37.7 167 75.3 165 112.8 170C150.3 175 187.7 187 225.2 195C262.7 203 300.3 207 337.8 206C375.3 205 412.7 199 450.2 196C487.7 193 525.3 193 562.8 195C600.3 197 637.7 201 675.2 206C712.7 211 750.3 217 787.8 215C825.3 213 862.7 203 881.3 198L900 193L900 173L881.3 176C862.7 179 825.3 185 787.8 187C750.3 189 712.7 187 675.2 184C637.7 181 600.3 177 562.8 175C525.3 173 487.7 173 450.2 175C412.7 177 375.3 181 337.8 180C300.3 179 262.7 173 225.2 166C187.7 159 150.3 151 112.8 148C75.3 145 37.7 147 18.8 148L0 149Z" fill="#b2b1b0"></path><path d="M0 271L18.8 278C37.7 285 75.3 299 112.8 305C150.3 311 187.7 309 225.2 308C262.7 307 300.3 307 337.8 302C375.3 297 412.7 287 450.2 300C487.7 313 525.3 349 562.8 357C600.3 365 637.7 345 675.2 343C712.7 341 750.3 357 787.8 356C825.3 355 862.7 337 881.3 328L900 319L900 191L881.3 196C862.7 201 825.3 211 787.8 213C750.3 215 712.7 209 675.2 204C637.7 199 600.3 195 562.8 193C525.3 191 487.7 191 450.2 194C412.7 197 375.3 203 337.8 204C300.3 205 262.7 201 225.2 193C187.7 185 150.3 173 112.8 168C75.3 163 37.7 165 18.8 166L0 167Z" fill="#a6a5a4"></path><path d="M0 313L18.8 325C37.7 337 75.3 361 112.8 373C150.3 385 187.7 385 225.2 378C262.7 371 300.3 357 337.8 348C375.3 339 412.7 335 450.2 349C487.7 363 525.3 395 562.8 403C600.3 411 637.7 395 675.2 394C712.7 393 750.3 407 787.8 405C825.3 403 862.7 385 881.3 376L900 367L900 317L881.3 326C862.7 335 825.3 353 787.8 354C750.3 355 712.7 339 675.2 341C637.7 343 600.3 363 562.8 355C525.3 347 487.7 311 450.2 298C412.7 285 375.3 295 337.8 300C300.3 305 262.7 305 225.2 306C187.7 307 150.3 309 112.8 303C75.3 297 37.7 283 18.8 276L0 269Z" fill="#9b9a99"></path><path d="M0 487L18.8 480C37.7 473 75.3 459 112.8 460C150.3 461 187.7 477 225.2 483C262.7 489 300.3 485 337.8 478C375.3 471 412.7 461 450.2 465C487.7 469 525.3 487 562.8 489C600.3 491 637.7 477 675.2 477C712.7 477 750.3 491 787.8 488C825.3 485 862.7 465 881.3 455L900 445L900 365L881.3 374C862.7 383 825.3 401 787.8 403C750.3 405 712.7 391 675.2 392C637.7 393 600.3 409 562.8 401C525.3 393 487.7 361 450.2 347C412.7 333 375.3 337 337.8 346C300.3 355 262.7 369 225.2 376C187.7 383 150.3 383 112.8 371C75.3 359 37.7 335 18.8 323L0 311Z" fill="#8f8f8e"></path><path d="M0 529L18.8 530C37.7 531 75.3 533 112.8 539C150.3 545 187.7 555 225.2 555C262.7 555 300.3 545 337.8 542C375.3 539 412.7 543 450.2 546C487.7 549 525.3 551 562.8 550C600.3 549 637.7 545 675.2 544C712.7 543 750.3 545 787.8 544C825.3 543 862.7 539 881.3 537L900 535L900 443L881.3 453C862.7 463 825.3 483 787.8 486C750.3 489 712.7 475 675.2 475C637.7 475 600.3 489 562.8 487C525.3 485 487.7 467 450.2 463C412.7 459 375.3 469 337.8 476C300.3 483 262.7 487 225.2 481C187.7 475 150.3 459 112.8 458C75.3 457 37.7 471 18.8 478L0 485Z" fill="#848483"></path><path d="M0 565L18.8 565C37.7 565 75.3 565 112.8 568C150.3 571 187.7 577 225.2 577C262.7 577 300.3 571 337.8 568C375.3 565 412.7 565 450.2 567C487.7 569 525.3 573 562.8 575C600.3 577 637.7 577 675.2 577C712.7 577 750.3 577 787.8 573C825.3 569 862.7 561 881.3 557L900 553L900 533L881.3 535C862.7 537 825.3 541 787.8 542C750.3 543 712.7 541 675.2 542C637.7 543 600.3 547 562.8 548C525.3 549 487.7 547 450.2 544C412.7 541 375.3 537 337.8 540C300.3 543 262.7 553 225.2 553C187.7 553 150.3 543 112.8 537C75.3 531 37.7 529 18.8 528L0 527Z" fill="#797979"></path><path d="M0 601L18.8 601C37.7 601 75.3 601 112.8 601C150.3 601 187.7 601 225.2 601C262.7 601 300.3 601 337.8 601C375.3 601 412.7 601 450.2 601C487.7 601 525.3 601 562.8 601C600.3 601 637.7 601 675.2 601C712.7 601 750.3 601 787.8 601C825.3 601 862.7 601 881.3 601L900 601L900 551L881.3 555C862.7 559 825.3 567 787.8 571C750.3 575 712.7 575 675.2 575C637.7 575 600.3 575 562.8 573C525.3 571 487.7 567 450.2 565C412.7 563 375.3 563 337.8 566C300.3 569 262.7 575 225.2 575C187.7 575 150.3 569 112.8 566C75.3 563 37.7 563 18.8 563L0 563Z" fill="#6e6e6e"></path></svg>